<svg xmlns="http://www.w3.org/2000/svg" width="1366" height="800"><path d="M-451,-448L-178,-408L756,-491Z" fill="#ebebeb" stroke="#ebebeb" stroke-width="1.51"/><path d="M501,1224L-87,1265L1032,1274Z" fill="#5a5a5a" stroke="#5a5a5a" stroke-width="1.51"/><path d="M1032,1274L-87,1265L1219,1298Z" fill="#4a4a4a" stroke="#4a4a4a" stroke-width="1.51"/><path d="M756,-491L906,-457L1285,-488Z" fill="#b5b5b5" stroke="#b5b5b5" stroke-width="1.51"/><path d="M-451,-448L756,-491L1683,-527Z" fill="#c9c9c9" stroke="#c9c9c9" stroke-width="1.51"/><path d="M756,-491L1285,-488L1683,-527Z" fill="#a6a6a6" stroke="#a6a6a6" stroke-width="1.51"/><path d="M1365,241L1360,428L1717,119Z" fill="#6d6d6d" stroke="#6d6d6d" stroke-width="1.51"/><path d="M1524,961L1661,1184L1765,821Z" fill="#2b2b2b" stroke="#2b2b2b" stroke-width="1.51"/><path d="M1683,-527L1592,-315L1823,-110Z" fill="#7c7c7c" stroke="#7c7c7c" stroke-width="1.51"/><path d="M1717,119L1360,428L1830,527Z" fill="#5a5a5a" stroke="#5a5a5a" stroke-width="1.51"/><path d="M1823,-110L1717,119L1830,527Z" fill="#5e5e5e" stroke="#5e5e5e" stroke-width="1.51"/><path d="M1765,821L1661,1184L1831,711Z" fill="#2d2d2d" stroke="#2d2d2d" stroke-width="1.51"/><path d="M1830,527L1475,726L1831,711Z" fill="#414141" stroke="#414141" stroke-width="1.51"/><path d="M1475,726L1765,821L1831,711Z" fill="#3c3c3c" stroke="#3c3c3c" stroke-width="1.51"/><path d="M1360,428L1475,726L1830,527Z" fill="#515151" stroke="#515151" stroke-width="1.51"/><path d="M1592,-315L1717,119L1823,-110Z" fill="#727272" stroke="#727272" stroke-width="1.51"/><path d="M1592,-315L1377,-240L1717,119Z" fill="#7d7d7d" stroke="#7d7d7d" stroke-width="1.51"/><path d="M1475,726L1524,961L1765,821Z" fill="#3c3c3c" stroke="#3c3c3c" stroke-width="1.51"/><path d="M-178,-408L135,-373L756,-491Z" fill="#e1e1e1" stroke="#e1e1e1" stroke-width="1.51"/><path d="M1524,961L1489,1065L1661,1184Z" fill="#292929" stroke="#292929" stroke-width="1.51"/><path d="M1377,-240L1241,55L1717,119Z" fill="#828282" stroke="#828282" stroke-width="1.51"/><path d="M1241,55L1365,241L1717,119Z" fill="#797979" stroke="#797979" stroke-width="1.51"/><path d="M1489,1065L1219,1298L1661,1184Z" fill="#282828" stroke="#282828" stroke-width="1.51"/><path d="M1285,-488L1592,-315L1683,-527Z" fill="#8c8c8c" stroke="#8c8c8c" stroke-width="1.51"/><path d="M1285,-488L1377,-240L1592,-315Z" fill="#929292" stroke="#929292" stroke-width="1.51"/><path d="M1312,791L1489,1065L1524,961Z" fill="#3e3e3e" stroke="#3e3e3e" stroke-width="1.51"/><path d="M1475,726L1312,791L1524,961Z" fill="#484848" stroke="#484848" stroke-width="1.51"/><path d="M1325,394L1360,428L1365,241Z" fill="#717171" stroke="#717171" stroke-width="1.51"/><path d="M1360,428L1312,791L1475,726Z" fill="#595959" stroke="#595959" stroke-width="1.51"/><path d="M1312,791L1171,854L1489,1065Z" fill="#4a4a4a" stroke="#4a4a4a" stroke-width="1.51"/><path d="M1171,854L1219,1298L1489,1065Z" fill="#3c3c3c" stroke="#3c3c3c" stroke-width="1.51"/><path d="M1171,854L1032,1274L1219,1298Z" fill="#3f3f3f" stroke="#3f3f3f" stroke-width="1.51"/><path d="M1171,854L1312,791L1325,394Z" fill="#5f5f5f" stroke="#5f5f5f" stroke-width="1.51"/><path d="M858,721L1171,854L1325,394Z" fill="#696969" stroke="#696969" stroke-width="1.51"/><path d="M1325,394L1312,791L1360,428Z" fill="#656565" stroke="#656565" stroke-width="1.51"/><path d="M1285,-488L1036,-177L1377,-240Z" fill="#a0a0a0" stroke="#a0a0a0" stroke-width="1.51"/><path d="M1036,-177L1099,-129L1377,-240Z" fill="#9f9f9f" stroke="#9f9f9f" stroke-width="1.51"/><path d="M1099,-129L1241,55L1377,-240Z" fill="#979797" stroke="#979797" stroke-width="1.51"/><path d="M1241,55L1325,394L1365,241Z" fill="#7e7e7e" stroke="#7e7e7e" stroke-width="1.51"/><path d="M716,1189L501,1224L1032,1274Z" fill="#4d4d4d" stroke="#4d4d4d" stroke-width="1.51"/><path d="M832,273L858,721L1325,394Z" fill="#7e7e7e" stroke="#7e7e7e" stroke-width="1.51"/><path d="M1241,55L832,273L1325,394Z" fill="#888888" stroke="#888888" stroke-width="1.51"/><path d="M906,-457L1036,-177L1285,-488Z" fill="#acacac" stroke="#acacac" stroke-width="1.51"/><path d="M831,149L832,273L1241,55Z" fill="#999999" stroke="#999999" stroke-width="1.51"/><path d="M859,898L1032,1274L1171,854Z" fill="#515151" stroke="#515151" stroke-width="1.51"/><path d="M1099,-129L831,149L1241,55Z" fill="#9b9b9b" stroke="#9b9b9b" stroke-width="1.51"/><path d="M858,721L859,898L1171,854Z" fill="#666666" stroke="#666666" stroke-width="1.51"/><path d="M859,898L716,1189L1032,1274Z" fill="#4f4f4f" stroke="#4f4f4f" stroke-width="1.51"/><path d="M1036,-177L831,149L1099,-129Z" fill="#a4a4a4" stroke="#a4a4a4" stroke-width="1.51"/><path d="M675,-79L714,82L831,149Z" fill="#adadad" stroke="#adadad" stroke-width="1.51"/><path d="M832,273L781,717L858,721Z" fill="#808080" stroke="#808080" stroke-width="1.51"/><path d="M906,-457L675,-79L1036,-177Z" fill="#b4b4b4" stroke="#b4b4b4" stroke-width="1.51"/><path d="M675,-79L831,149L1036,-177Z" fill="#ababab" stroke="#ababab" stroke-width="1.51"/><path d="M561,466L781,717L832,273Z" fill="#8d8d8d" stroke="#8d8d8d" stroke-width="1.51"/><path d="M858,721L781,717L859,898Z" fill="#717171" stroke="#717171" stroke-width="1.51"/><path d="M644,1008L716,1189L859,898Z" fill="#5e5e5e" stroke="#5e5e5e" stroke-width="1.51"/><path d="M756,-491L675,-79L906,-457Z" fill="#bebebe" stroke="#bebebe" stroke-width="1.51"/><path d="M781,717L644,1008L859,898Z" fill="#6e6e6e" stroke="#6e6e6e" stroke-width="1.51"/><path d="M338,-269L675,-79L756,-491Z" fill="#c7c7c7" stroke="#c7c7c7" stroke-width="1.51"/><path d="M561,466L533,674L781,717Z" fill="#898989" stroke="#898989" stroke-width="1.51"/><path d="M831,149L714,82L832,273Z" fill="#a3a3a3" stroke="#a3a3a3" stroke-width="1.51"/><path d="M714,82L488,238L832,273Z" fill="#a7a7a7" stroke="#a7a7a7" stroke-width="1.51"/><path d="M488,238L561,466L832,273Z" fill="#9f9f9f" stroke="#9f9f9f" stroke-width="1.51"/><path d="M135,-373L338,-269L756,-491Z" fill="#d7d7d7" stroke="#d7d7d7" stroke-width="1.51"/><path d="M533,674L644,1008L781,717Z" fill="#7a7a7a" stroke="#7a7a7a" stroke-width="1.51"/><path d="M338,-269L531,-30L675,-79Z" fill="#c5c5c5" stroke="#c5c5c5" stroke-width="1.51"/><path d="M675,-79L531,-30L714,82Z" fill="#b7b7b7" stroke="#b7b7b7" stroke-width="1.51"/><path d="M531,-30L488,238L714,82Z" fill="#b5b5b5" stroke="#b5b5b5" stroke-width="1.51"/><path d="M644,1008L501,1224L716,1189Z" fill="#5a5a5a" stroke="#5a5a5a" stroke-width="1.51"/><path d="M276,1140L-87,1265L501,1224Z" fill="#696969" stroke="#696969" stroke-width="1.51"/><path d="M533,674L469,1047L644,1008Z" fill="#767676" stroke="#767676" stroke-width="1.51"/><path d="M469,1047L501,1224L644,1008Z" fill="#636363" stroke="#636363" stroke-width="1.51"/><path d="M163,24L488,238L531,-30Z" fill="#c2c2c2" stroke="#c2c2c2" stroke-width="1.51"/><path d="M223,647L469,1047L533,674Z" fill="#8a8a8a" stroke="#8a8a8a" stroke-width="1.51"/><path d="M393,478L533,674L561,466Z" fill="#979797" stroke="#979797" stroke-width="1.51"/><path d="M488,238L393,478L561,466Z" fill="#a3a3a3" stroke="#a3a3a3" stroke-width="1.51"/><path d="M276,322L393,478L488,238Z" fill="#aeaeae" stroke="#aeaeae" stroke-width="1.51"/><path d="M338,-269L172,-84L531,-30Z" fill="#d0d0d0" stroke="#d0d0d0" stroke-width="1.51"/><path d="M393,478L223,647L533,674Z" fill="#9a9a9a" stroke="#9a9a9a" stroke-width="1.51"/><path d="M172,-84L163,24L531,-30Z" fill="#cdcdcd" stroke="#cdcdcd" stroke-width="1.51"/><path d="M223,647L27,942L276,1140Z" fill="#8a8a8a" stroke="#8a8a8a" stroke-width="1.51"/><path d="M223,647L276,1140L469,1047Z" fill="#7f7f7f" stroke="#7f7f7f" stroke-width="1.51"/><path d="M163,24L276,322L488,238Z" fill="#bebebe" stroke="#bebebe" stroke-width="1.51"/><path d="M469,1047L276,1140L501,1224Z" fill="#676767" stroke="#676767" stroke-width="1.51"/><path d="M276,322L223,647L393,478Z" fill="#a6a6a6" stroke="#a6a6a6" stroke-width="1.51"/><path d="M-42,411L223,647L276,322Z" fill="#afafaf" stroke="#afafaf" stroke-width="1.51"/><path d="M135,-373L172,-84L338,-269Z" fill="#dcdcdc" stroke="#dcdcdc" stroke-width="1.51"/><path d="M-48,706L27,942L223,647Z" fill="#9b9b9b" stroke="#9b9b9b" stroke-width="1.51"/><path d="M163,24L-22,248L276,322Z" fill="#c6c6c6" stroke="#c6c6c6" stroke-width="1.51"/><path d="M-22,248L-42,411L276,322Z" fill="#bebebe" stroke="#bebebe" stroke-width="1.51"/><path d="M27,942L-87,1265L276,1140Z" fill="#777777" stroke="#777777" stroke-width="1.51"/><path d="M-26,959L-87,1265L27,942Z" fill="#818181" stroke="#818181" stroke-width="1.51"/><path d="M-42,411L-48,706L223,647Z" fill="#a9a9a9" stroke="#a9a9a9" stroke-width="1.51"/><path d="M-185,-181L163,24L172,-84Z" fill="#dbdbdb" stroke="#dbdbdb" stroke-width="1.51"/><path d="M135,-373L-185,-181L172,-84Z" fill="#e2e2e2" stroke="#e2e2e2" stroke-width="1.51"/><path d="M-185,-181L-22,248L163,24Z" fill="#d7d7d7" stroke="#d7d7d7" stroke-width="1.51"/><path d="M-178,-408L-185,-181L135,-373Z" fill="#ececec" stroke="#ececec" stroke-width="1.51"/><path d="M-338,509L-48,706L-42,411Z" fill="#b4b4b4" stroke="#b4b4b4" stroke-width="1.51"/><path d="M-185,-181L-323,-95L-22,248Z" fill="#dfdfdf" stroke="#dfdfdf" stroke-width="1.51"/><path d="M-323,-95L-372,191L-22,248Z" fill="#dadada" stroke="#dadada" stroke-width="1.51"/><path d="M-48,706L-26,959L27,942Z" fill="#969696" stroke="#969696" stroke-width="1.51"/><path d="M-338,509L-310,692L-48,706Z" fill="#afafaf" stroke="#afafaf" stroke-width="1.51"/><path d="M-310,692L-321,935L-48,706Z" fill="#a4a4a4" stroke="#a4a4a4" stroke-width="1.51"/><path d="M-48,706L-321,935L-26,959Z" fill="#9a9a9a" stroke="#9a9a9a" stroke-width="1.51"/><path d="M-321,935L-87,1265L-26,959Z" fill="#868686" stroke="#868686" stroke-width="1.51"/><path d="M-372,191L-42,411L-22,248Z" fill="#c9c9c9" stroke="#c9c9c9" stroke-width="1.51"/><path d="M-321,935L-399,1236L-87,1265Z" fill="#818181" stroke="#818181" stroke-width="1.51"/><path d="M-372,191L-338,509L-42,411Z" fill="#c6c6c6" stroke="#c6c6c6" stroke-width="1.51"/><path d="M-451,-448L-323,-95L-185,-181Z" fill="#f0f0f0" stroke="#f0f0f0" stroke-width="1.51"/><path d="M-451,-448L-185,-181L-178,-408Z" fill="#f3f3f3" stroke="#f3f3f3" stroke-width="1.51"/><path d="M-338,509L-321,935L-310,692Z" fill="#acacac" stroke="#acacac" stroke-width="1.51"/><path d="M-338,509L-399,1236L-321,935Z" fill="#9d9d9d" stroke="#9d9d9d" stroke-width="1.51"/><path d="M-451,-448L-372,191L-323,-95Z" fill="#ebebeb" stroke="#ebebeb" stroke-width="1.51"/><path d="M-372,191L-399,1236L-338,509Z" fill="#b2b2b2" stroke="#b2b2b2" stroke-width="1.51"/><path d="M-451,-448L-399,1236L-372,191Z" fill="#cdcdcd" stroke="#cdcdcd" stroke-width="1.51"/></svg>